<svg id="SvgjsSvg1001" width="288" height="288" xmlns="http://www.w3.org/2000/svg" version="1.1" xmlns:xlink="http://www.w3.org/1999/xlink" xmlns:svgjs="http://svgjs.com/svgjs"><defs id="SvgjsDefs1002"></defs><g id="SvgjsG1008" transform="matrix(0.916700005531311,0,0,0.916700005531311,11.995161056518555,11.990279197692871)"><svg xmlns="http://www.w3.org/2000/svg" data-name="Layer 1" viewBox="0 0 512 512" width="288" height="288"><g data-name="&amp;lt;Group&amp;gt;" fill="#ff8066" class="color000 svgShape"><g data-name="&amp;lt;Group&amp;gt;" fill="#ff8066" class="color000 svgShape"><path fill="#fe6339" d="M260.92,356.42a127.557,127.557,0,1,1,111.04,64.75A127.007,127.007,0,0,1,260.92,356.42Z" data-name="&amp;lt;Group&amp;gt;" class="color00efd1 svgShape"></path><path fill="#ffffff" d="M311.1,158.36a95.527,95.527,0,0,1,41.14,9.25,127.6,127.6,0,0,0-91.32,188.81H76.12A63.659,63.659,0,0,1,12.5,292.44a2.09,2.09,0,0,1,.01-.25l.1-3.36c.07-40.16,27.46-74.38,65.07-83.03v-.03a114.963,114.963,0,0,1,220.1-46.48A95.559,95.559,0,0,1,311.1,158.36Z" data-name="&amp;lt;Group&amp;gt;" class="color00acea svgShape"></path></g><g data-name="&amp;lt;Group&amp;gt;" fill="#ff8066" class="color000 svgShape"><path fill="#000000" d="M371.96,156.09a138.834,138.834,0,0,0-18.189,1.222A104.881,104.881,0,0,0,311.1,148.36c-2.448,0-4.9.085-7.343.255A125.075,125.075,0,0,0,192.62,80.83c-66.319,0-120.735,51.938-124.708,117.3a93.841,93.841,0,0,0-44.7,31.176,96.752,96.752,0,0,0-20.6,59.361l-.089,3c-.018.294-.021.538-.021.718A73.3,73.3,0,0,0,76.12,366H255.257c25.052,41,69.226,64.96,116.7,64.96,75.84,0,137.54-61.595,137.54-137.435S447.8,156.09,371.96,156.09ZM38.108,330.388A53.015,53.015,0,0,1,22.5,292.546c0-.053.005-.055.006-.109l.1-3.334c0-.094,0-.175,0-.268a76.642,76.642,0,0,1,16.31-47.151,73.467,73.467,0,0,1,41-26.142,10.032,10.032,0,0,0,7.759-9.774,104.963,104.963,0,0,1,200.956-42.432,10.011,10.011,0,0,0,10.54,5.856,85.724,85.724,0,0,1,11.924-.832c1.292,0,2.577.036,3.857.092A137.554,137.554,0,0,0,234.42,293.42,134.444,134.444,0,0,0,244.945,346H76.12A53.044,53.044,0,0,1,38.108,330.388ZM371.96,411.17A117.54,117.54,0,1,1,489.5,293.63,117.854,117.854,0,0,1,371.96,411.17Z" data-name="&amp;lt;Compound Path&amp;gt;" class="color083863 svgShape"></path><path fill="#000000" d="M378.459,240.229a10,10,0,0,0-13.918,0L326.391,277.2a10,10,0,0,0-.223,14.141,9.7,9.7,0,0,0,13.891.223L361,271.026V339.85a10,10,0,0,0,20,0V271.026l21.441,20.536a10.268,10.268,0,0,0,7.083,2.818,10.118,10.118,0,0,0,7.246-3.041,10,10,0,0,0-.192-14.141Z" data-name="&amp;lt;Path&amp;gt;" class="color083863 svgShape"></path></g></g></svg></g></svg>